<?xml version="1.0" encoding="UTF-8" standalone="no"?>
<svg
   xmlns:dc="http://purl.org/dc/elements/1.1/"
   xmlns:cc="http://creativecommons.org/ns#"
   xmlns:rdf="http://www.w3.org/1999/02/22-rdf-syntax-ns#"
   xmlns:svg="http://www.w3.org/2000/svg"
   xmlns="http://www.w3.org/2000/svg"
   xmlns:sodipodi="http://sodipodi.sourceforge.net/DTD/sodipodi-0.dtd"
   xmlns:inkscape="http://www.inkscape.org/namespaces/inkscape"
   width="146.074"
   height="33.775"
   version="1.1"
   id="svg11020"
   sodipodi:docname="info-layer-switch.mini.svg"
   inkscape:version="0.92.4 (unknown)">
  <metadata
     id="metadata11024">
    <rdf:RDF>
      <cc:Work
         rdf:about="">
        <dc:format>image/svg+xml</dc:format>
        <dc:type
           rdf:resource="http://purl.org/dc/dcmitype/StillImage" />
      </cc:Work>
    </rdf:RDF>
  </metadata>
  <sodipodi:namedview
     pagecolor="#ffffff"
     bordercolor="#666666"
     borderopacity="1"
     objecttolerance="10"
     gridtolerance="10"
     guidetolerance="10"
     inkscape:pageopacity="0"
     inkscape:pageshadow="2"
     inkscape:window-width="1920"
     inkscape:window-height="1016"
     id="namedview11022"
     showgrid="false"
     inkscape:zoom="6.5446851"
     inkscape:cx="83.508587"
     inkscape:cy="34.997164"
     inkscape:window-x="0"
     inkscape:window-y="27"
     inkscape:window-maximized="1"
     inkscape:current-layer="svg11020" />
  <defs
     id="defs10978">
    <linearGradient
       id="a">
      <stop
         offset="0"
         stop-color="#fff"
         id="stop10967" />
      <stop
         offset="1"
         stop-color="#fff"
         stop-opacity="0"
         id="stop10969" />
    </linearGradient>
    <filter
       id="c"
       x="-.037"
       width="1.075"
       y="-.123"
       height="1.247"
       color-interpolation-filters="sRGB">
      <feGaussianBlur
         stdDeviation="1.393"
         id="feGaussianBlur10972" />
    </filter>
    <filter
       id="b"
       color-interpolation-filters="sRGB">
      <feGaussianBlur
         stdDeviation="1.013"
         id="feGaussianBlur10975" />
    </filter>
  </defs>
  <g
     fill="#fff"
     filter="url(#b)"
     transform="translate(-686.44 -424.78)"
     id="g10992">
    <g
       style="text-align:center;line-height:92.00000167%;-inkscape-font-specification:InkiCE"
       font-size="40"
       font-weight="400"
       letter-spacing="0"
       word-spacing="0"
       text-anchor="middle"
       font-family="InkiCE"
       id="g10982">
      <path
         d="M692.548 431.438c.042-.253.235-.38.58-.38.167 0 .262.075.283.222.675-.24 1.282-.34 1.823-.305.477.098.716.322.716.673 0 .485-.296 1.166-.886 2.043-.744 1.11-1.57 1.665-2.474 1.665-.344 0-.572-.09-.684-.274a7.756 7.756 0 0 0-.21 1.18c.04.19-.1.34-.422.453a.928.928 0 0 1-.295.063c-.113 0-.155-.06-.127-.18.273-1.087.498-1.922.673-2.505.302-.988.618-1.785.948-2.39.007-.055.032-.143.074-.262zm.526.642a14.987 14.987 0 0 0-.937 2.2c.127.225.277.34.453.348.386.02.765-.12 1.137-.42.112-.092.41-.387.895-.885.253-.337.453-.653.6-.948a.524.524 0 0 0 .064-.232c0-.182-.123-.33-.37-.442a3.177 3.177 0 0 0-.262-.01c-.435 0-.962.13-1.58.39zM697.318 431.227c.042-.252.235-.38.58-.38.21 0 .315.075.315.222 0 .09-.046.217-.137.378a3.87 3.87 0 0 1-.116.21c.68-.483 1.3-.704 1.853-.662a.54.54 0 0 1 .17-.032c.343 0 .515.29.515.874 0 .21-.032.456-.095.737.042.33-.088.53-.39.6a.45.45 0 0 1-.158.032c-.12 0-.18-.056-.18-.17 0-.048.015-.114.043-.2.1-.272.137-.525.116-.757-.014-.21-.126-.333-.337-.368-.38 0-.796.182-1.253.547-.175.14-.516.47-1.02.99-.106.37-.194.9-.264 1.59.042.188-.1.34-.42.452a.928.928 0 0 1-.296.063c-.12 0-.165-.06-.137-.18l.59-2.326c.112-.457.294-.91.547-1.36.028-.133.053-.22.074-.263zm1.937-.874c-.646-.56-1.13-.877-1.453-.947-.225-.014-.344-.078-.358-.19.014-.098.035-.2.063-.305.1-.203.204-.305.316-.305.042 0 .098.06.17.18.097.006.274.085.53.236.257.152.522.316.795.49.646-.54 1.173-.796 1.58-.768.12.028.18.085.18.17 0 .07-.03.146-.086.23-.105.162-.217.243-.336.243a.28.28 0 0 1-.127-.032c-.268.162-.692.495-1.275 1zM704.478 430.522h.295l.052.147.263.168.222.6-.19.747-.22.295-.928.464-.968.242h-.453l-.283-.327-.327.347-.19.284-.157.243-.064.327.19.284.262.168.38.116.736-.147.295-.03.4-.032.264-.21.695-.138-.074.17-.442.494-.632.358-.38.084-.357.084-.39.074h-.442l-.685-.21-.22-.285-.253-.464-.064-.222.032-.452.232-.42.147-.286.232-.21.158-.243.38-.43 1-.928.578-.347c.33-.19.632-.295.906-.316zm-.285.642l-.284.126-.906.643-.158.474.052.063 1.19-.306.39-.442.137-.253-.17-.21zM706.784 431.438c.042-.253.235-.38.58-.38.167 0 .262.075.283.222.674-.24 1.28-.34 1.822-.305.476.098.715.322.715.673 0 .485-.295 1.166-.885 2.043-.744 1.11-1.57 1.665-2.474 1.665-.344 0-.572-.09-.685-.274a7.756 7.756 0 0 0-.21 1.18c.043.19-.097.34-.42.453a.928.928 0 0 1-.295.063c-.113 0-.155-.06-.127-.18.274-1.087.5-1.922.674-2.505.302-.988.618-1.785.948-2.39.007-.055.032-.143.074-.262zm.526.642a14.987 14.987 0 0 0-.937 2.2c.126.225.277.34.453.348.386.02.765-.12 1.137-.42.112-.092.41-.387.895-.885.253-.337.453-.653.6-.948a.524.524 0 0 0 .063-.232c0-.182-.12-.33-.367-.442a3.177 3.177 0 0 0-.263-.01c-.436 0-.962.13-1.58.39zM711.575 431.248c.05-.245.245-.368.59-.368.21 0 .315.07.315.21 0 .092-.045.218-.137.38-.4.7-.663 1.242-.79 1.62-.14.422-.25 1.012-.326 1.77.042.19-.098.34-.42.453a.928.928 0 0 1-.296.063c-.118 0-.164-.06-.136-.18l.58-2.316c.105-.42.29-.877.557-1.368.015-.1.037-.186.065-.264zm2.074-2.643c.083.085.104.208.062.37-.105.357-.498.694-1.18 1.01-.448.21-.715.277-.8.2-.028-.028-.03-.07-.01-.126.042-.12.165-.282.37-.486l.715-.726c.112-.12.245-.21.4-.274.196-.084.344-.074.442.03zM713.617 431.227c.05-.252.246-.38.59-.38.21 0 .316.075.316.222 0 .098-.063.256-.19.473-.05.084-.137.242-.263.474l-.242.474c.54-.406 1.207-.81 2-1.21.155-.05.288-.074.4-.074.21 0 .317.09.317.274 0 .028-.044.23-.132.605l-.332 1.417a19.377 19.377 0 0 1-.44 1.505c0 .17-.17.27-.506.306-.225.028-.337-.025-.337-.158 0-.063.028-.148.084-.253.394-1.018.636-1.885.727-2.6-.035-.043-.087-.064-.158-.064-.14 0-.355.084-.643.253a8.6 8.6 0 0 0-1.337.98c-.084.365-.15.82-.2 1.37.042.188-.098.34-.42.452a.928.928 0 0 1-.296.063c-.12 0-.165-.06-.137-.18l.58-2.326c.097-.408.283-.86.557-1.36.014-.098.035-.185.063-.263zM721.82 431.206c-.316.765-.635 1.727-.958 2.885-.534.837-1.327 1.247-2.38 1.233-.835-.09-1.337-.266-1.506-.526-.105-.162-.158-.31-.158-.442 0-.092.02-.18.063-.264.746-.855 1.41-1.368 1.992-1.536.526-.225 1.158-.337 1.895-.337.07-.302.168-.6.295-.895a.366.366 0 0 0-.18-.38c-.21-.097-.515-.097-.915 0-.422.036-.853.243-1.296.622a.378.378 0 0 1-.24.095c-.078 0-.148-.043-.21-.127a.398.398 0 0 1-.096-.232c0-.07.04-.146.116-.23.407-.394.95-.664 1.632-.81.484-.114.91-.12 1.274-.022.4.112.625.435.674.968zm-1.443 1.77a1.835 1.835 0 0 0-.463-.064c-.232 0-.54.08-.927.242-.316.134-.55.262-.7.385-.15.12-.314.327-.49.614-.02.21.032.355.158.432.106.063.267.088.485.074.42.063.758.044 1.01-.058.253-.102.503-.325.748-.67l.127-.483c.042-.162.06-.32.052-.475zM726.19 431.9c.014.184-.102.338-.348.464a.65.65 0 0 1-.263.085c-.078 0-.117-.043-.117-.128a1.63 1.63 0 0 0 .116-.547c0-.316-.092-.5-.275-.548-.667.33-1.204.727-1.61 1.19-.366.42-.706.997-1.022 1.727-.02.28.066.42.263.42.09 0 .207-.027.347-.083.106-.04.748-.36 1.927-.957a.262.262 0 0 1 .116-.032c.098 0 .172.085.22.254.064.23.022.39-.125.474-.996.56-1.807.92-2.43 1.074a1.49 1.49 0 0 1-.35.052c-.42 0-.63-.347-.63-1.042.49-1.818 1.572-3.096 3.242-3.833.204-.092.372-.138.506-.138.126 0 .235.048.326.142.09.095.14.21.148.343.042.14.063.287.063.442 0 .195-.035.41-.105.64zm-.8-2.03c-.647-.563-1.13-.878-1.454-.95-.224-.013-.344-.076-.358-.188.014-.098.035-.2.063-.306.1-.203.205-.305.317-.305.042 0 .1.06.17.18.097.007.274.086.53.237.257.15.522.314.795.49.646-.54 1.173-.797 1.58-.77.12.03.18.085.18.17 0 .07-.03.147-.085.23-.106.163-.218.243-.337.243a.28.28 0 0 1-.127-.03c-.266.16-.69.494-1.274 1zM691 441.147c.042-.253.235-.38.58-.38.21 0 .315.075.315.222 0 .076-.102.304-.305.683l-.148.274c.393-.31.78-.558 1.158-.747.155-.05.288-.074.4-.074.21 0 .316.09.316.274 0 .14-.045.344-.136.61v.042a8.29 8.29 0 0 1 1.284-.852c.155-.05.288-.074.4-.074.218 0 .327.09.327.274 0 .014-.045.217-.136.61-.33 1.397-.59 2.37-.78 2.917 0 .168-.168.27-.505.305-.225.028-.338-.02-.338-.147 0-.07.032-.158.095-.263.386-1.04.628-1.906.727-2.6a.17.17 0 0 0-.137-.064c-.176 0-.544.235-1.106.705-.16.68-.36 1.37-.6 2.064 0 .168-.168.27-.504.305-.225.028-.337-.02-.337-.147 0-.07.03-.158.093-.263.386-1.053.625-1.92.716-2.6a.17.17 0 0 0-.138-.064c-.19 0-.617.288-1.284.863-.126.366-.232.945-.316 1.74.042.188-.098.34-.42.45a.928.928 0 0 1-.296.064c-.12 0-.165-.06-.137-.18l.59-2.326c.104-.428.287-.88.546-1.358.007-.056.032-.144.074-.263zM700.466 441.126c-.316.765-.635 1.727-.958 2.885-.534.836-1.327 1.247-2.38 1.233-.835-.09-1.337-.267-1.506-.527-.105-.16-.157-.308-.157-.442 0-.09.02-.18.063-.263.744-.855 1.407-1.368 1.99-1.536.526-.225 1.158-.337 1.895-.337.07-.302.17-.6.295-.895a.366.366 0 0 0-.18-.38c-.21-.098-.515-.098-.915 0-.42.036-.853.243-1.295.622a.378.378 0 0 1-.242.095c-.078 0-.148-.044-.21-.128a.398.398 0 0 1-.096-.23c0-.072.04-.15.116-.233.407-.394.95-.664 1.632-.812.484-.112.91-.12 1.274-.02.4.11.625.434.674.968zm-1.443 1.77a1.835 1.835 0 0 0-.463-.064c-.23 0-.54.08-.926.242-.316.133-.55.26-.7.384-.152.123-.315.328-.49.616-.02.21.03.355.158.432.105.063.266.088.484.074.42.063.758.043 1.01-.058.254-.102.503-.325.748-.67l.127-.483c.043-.163.06-.32.053-.475zM702.088 441.357c.042-.252.235-.38.58-.38.167 0 .262.075.283.223.675-.24 1.282-.34 1.823-.306.477.098.716.323.716.674 0 .484-.296 1.165-.886 2.043-.744 1.11-1.57 1.664-2.474 1.664-.344 0-.572-.09-.685-.273a7.756 7.756 0 0 0-.21 1.18c.042.19-.1.34-.422.453a.928.928 0 0 1-.294.063c-.114 0-.156-.06-.128-.18.274-1.087.5-1.922.674-2.505.302-.99.618-1.786.948-2.39.007-.055.03-.143.074-.263zm.526.643a14.987 14.987 0 0 0-.937 2.2c.126.225.277.34.453.348.386.02.765-.12 1.137-.42.112-.093.41-.387.895-.886.253-.337.453-.653.6-.947a.524.524 0 0 0 .063-.232c0-.183-.123-.33-.368-.442a3.177 3.177 0 0 0-.264-.01c-.435 0-.96.13-1.58.39zM708.363 441.178c.14-.014.274-.02.4-.02.68 0 1.127.196 1.337.59.134.252.2.55.2.894 0 .295-.05.625-.147.99-.267.526-.702.937-1.306 1.232a4.008 4.008 0 0 1-2.17.38c-.658-.057-.988-.363-.988-.917 0-.063.002-.134.01-.21.477-1.454 1.364-2.433 2.663-2.938zm-.137.748c-.856.33-1.44.965-1.748 1.906a1.36 1.36 0 0 0-.01.168c0 .344.217.534.653.57.085.006.17.01.253.01.43 0 .815-.085 1.16-.253.392-.19.676-.46.85-.81a2.57 2.57 0 0 0 .096-.654c0-.64-.324-.958-.97-.958-.09 0-.186.007-.284.02zM710.806 440.957c.007-.287.168-.417.484-.39.295.022.453.187.474.496.028.512.035.916.02 1.21-.02.345-.073.762-.157 1.254.372-.38.73-.857 1.074-1.432.015-.02.307-.544.875-1.57.084-.154.2-.23.348-.23.084 0 .168.027.252.083.148.1.222.207.222.327 0 .07-.022.137-.064.2-.61.954-1.54 2.26-2.79 3.917-.007.35-.16.505-.463.463-.253-.035-.38-.105-.38-.21a.17.17 0 0 1 .022-.074c.14-1.214.21-2.123.21-2.726 0-.478-.042-.917-.126-1.317zM717.345 443.958a8.68 8.68 0 0 1-1.17.695l-1.073.527c-.16.056-.298.084-.41.084-.204 0-.306-.088-.306-.263 0-.027.044-.234.132-.62l.33-1.464c.135-.52.282-1.007.444-1.464-.007-.154.157-.252.494-.295.225-.028.337.02.337.148a.584.584 0 0 1-.084.253c-.394 1.038-.636 1.91-.727 2.61.035.05.094.075.18.075.14 0 .364-.074.672-.222.485-.23.948-.53 1.39-.894.07-.336.113-.638.127-.905.014-.266-.02-.452-.106-.557-.007-.33.144-.58.453-.748a.504.504 0 0 1 .22-.073c.148 0 .214.133.2.4.035.112.053.256.053.43 0 .156-.014.335-.042.538-.16 1.166-.512 2.39-1.052 3.675-.337.793-.97 1.19-1.895 1.19-.534 0-1.138-.14-1.81-.42-.233-.156-.35-.292-.35-.412 0-.077.047-.145.138-.205.092-.06.18-.09.264-.09.127 0 .242.064.348.19.526.21.968.312 1.326.305.35-.007.737-.18 1.16-.516.216-.31.47-.965.757-1.97zm1.22-5.18c.085.084.106.207.064.368-.106.358-.5.695-1.18 1.01-.45.212-.716.278-.8.2-.028-.027-.032-.07-.01-.125.04-.118.164-.28.368-.484l.716-.726c.112-.12.246-.21.4-.274.196-.084.344-.074.442.032zM722.862 441.82c.014.183-.102.338-.347.464a.65.65 0 0 1-.263.084c-.078 0-.116-.042-.116-.126a1.63 1.63 0 0 0 .116-.548c0-.315-.092-.498-.274-.547-.667.33-1.204.726-1.61 1.19-.366.42-.707.997-1.023 1.727-.02.28.067.42.264.42.09 0 .206-.027.346-.083.105-.042.748-.36 1.927-.958a.262.262 0 0 1 .116-.03c.097 0 .17.083.22.25.063.233.02.39-.126.475-.997.562-1.808.92-2.433 1.074a1.49 1.49 0 0 1-.346.054c-.42 0-.632-.348-.632-1.042.49-1.82 1.572-3.096 3.243-3.833.204-.092.372-.138.506-.138.127 0 .236.047.327.142.09.095.14.21.147.342.042.14.063.288.064.442 0 .197-.036.41-.106.643zM724.958 439.936c.042-.253.235-.38.58-.38.21 0 .315.075.315.222 0 .063-.144.372-.432.927-.062.126-.15.305-.262.537.54-.197 1.028-.295 1.463-.295.107 0 .208.003.307.01a.667.667 0 0 1 .19-.03c.343 0 .505.367.483 1.104-.02.872-.48 1.946-1.38 3.223-.083.155-.17.232-.262.232-.183 0-.274-.123-.274-.368 0-.113.028-.246.084-.4.407-.464.744-1.05 1.01-1.76.12-.315.18-.603.18-.862 0-.246-.112-.387-.337-.422-.518-.035-1.122.088-1.81.37-.386.968-.62 1.873-.705 2.716.042.188-.1.34-.42.45a.928.928 0 0 1-.296.064c-.12 0-.166-.06-.138-.18.245-.974.474-1.806.684-2.494.302-1.004.618-1.804.948-2.4.014-.043.038-.13.074-.264zM695.633 450.877c.007-.288.168-.418.484-.39.295.02.453.186.474.495.03.513.036.916.022 1.21-.02.345-.073.763-.158 1.254.372-.38.73-.856 1.074-1.432.014-.02.306-.544.874-1.57.084-.153.2-.23.348-.23.084 0 .168.028.252.084.148.098.222.207.222.326 0 .07-.022.137-.064.2-.61.955-1.54 2.26-2.79 3.917-.007.352-.16.507-.463.465-.253-.036-.38-.106-.38-.21a.17.17 0 0 1 .022-.075c.14-1.214.21-2.123.21-2.727 0-.477-.043-.916-.127-1.316zM700.403 451.067c.042-.253.235-.38.58-.38.21 0 .315.074.315.222 0 .09-.046.216-.137.378a3.868 3.868 0 0 1-.115.21c.68-.484 1.3-.705 1.853-.663a.54.54 0 0 1 .17-.032c.343 0 .515.292.515.874 0 .21-.032.457-.095.737.042.33-.088.53-.39.6a.45.45 0 0 1-.158.032c-.12 0-.18-.056-.18-.168 0-.05.015-.116.044-.2.098-.274.136-.527.115-.76-.015-.21-.127-.332-.338-.367-.38 0-.796.183-1.253.548-.176.14-.517.47-1.022.99-.105.372-.193.902-.263 1.59.042.19-.098.34-.42.453a.928.928 0 0 1-.296.064c-.12 0-.166-.06-.138-.18l.59-2.326c.112-.456.294-.91.547-1.358.027-.134.052-.22.073-.263zM708.363 450.382c.246.063.37.162.37.295 0 .035-.015.08-.043.137-.106.203-.26.298-.464.284a1.56 1.56 0 0 0-.516-.084c-.245 0-.502.045-.768.137-.492.17-.843.4-1.053.696-.198.19-.282.34-.254.452.028.1.13.12.305.064.233-.078.717-.22 1.454-.432l.074-.02c.274-.078.54-.113.8-.106.422-.043.72.07.895.337a.928.928 0 0 1 .095.853c-.435.843-1.112 1.51-2.032 2-.407.127-.804.19-1.19.19-.196 0-.404-.02-.62-.063-.612-.12-1.086-.312-1.423-.58-.147-.118-.22-.23-.22-.336 0-.056.017-.105.052-.147.105-.133.263-.18.474-.137.504.38 1.027.57 1.568.57.308 0 .656-.065 1.042-.19.82-.464 1.32-.92 1.495-1.37a.518.518 0 0 0 .042-.19c0-.182-.13-.273-.39-.273-.19 0-.65.098-1.38.295-.672.182-1.118.274-1.336.274-.4 0-.6-.17-.6-.506 0-.12.043-.26.127-.42.61-1.187 1.562-1.78 2.854-1.78.21 0 .426.017.643.052zM711.964 448.887c.035-.133.095-.2.18-.2.112 0 .227.063.347.19.12.126.18.245.18.357 0 .12-.06.243-.18.37-.16.287-.308.582-.442.883a2.57 2.57 0 0 1 .232-.01c.35 0 .677.08.98.242.168.02.252.16.252.42-.007.267-.123.393-.347.38a1.596 1.596 0 0 0-.97-.327 2.04 2.04 0 0 0-.452.053c-.05.112-.344 1.003-.884 2.674a.677.677 0 0 0-.044.2c0 .197.162.277.485.242.127.007.29-.035.485-.126.274-.126.428-.197.463-.21.176 0 .26.105.253.315-.006.226-.07.384-.188.475-.787.24-1.302.35-1.548.337a.72.72 0 0 1-.58-.326.937.937 0 0 1-.168-.653c.176-.562.442-1.408.8-2.538-.126.077-.308.2-.547.37a.187.187 0 0 1-.085.02c-.134 0-.2-.123-.2-.37 0-.125.042-.24.126-.346a5.618 5.618 0 0 1 1.022-.57 11.38 11.38 0 0 1 .832-1.853zM717.587 450.36h.295l.052.148.264.17.22.6-.19.747-.22.295-.926.463-.97.242h-.452l-.284-.326-.327.346-.19.284-.158.243-.063.326.188.283.263.17.38.115.738-.148.294-.03.4-.033.264-.21.695-.138-.073.168-.442.495-.632.358-.38.085-.357.084-.39.073h-.442l-.684-.21-.22-.285-.254-.463-.063-.22.03-.454.233-.42.147-.285.232-.21.158-.242.38-.432 1-.926.578-.347c.33-.19.633-.295.907-.316zm-.284.643l-.285.127-.905.642-.158.474.053.063 1.19-.306.39-.443.136-.25-.17-.212zM718.566 450.877c.007-.288.17-.418.485-.39.295.02.453.186.474.495.028.513.035.916.02 1.21-.02.345-.072.763-.157 1.254.373-.38.73-.856 1.074-1.432.016-.02.307-.544.875-1.57.085-.153.2-.23.348-.23.084 0 .168.028.253.084.147.098.22.207.22.326 0 .07-.02.137-.062.2-.61.955-1.54 2.26-2.79 3.917-.008.352-.162.507-.464.465-.253-.036-.38-.106-.38-.21a.17.17 0 0 1 .022-.075c.14-1.214.21-2.123.21-2.727 0-.477-.042-.916-.126-1.316z"
         id="path10980" />
    </g>
    <g
       font-weight="400"
       color="#000"
       font-family="Sans"
       id="g10990">
      <path
         style="text-indent:0;text-align:start;line-height:normal;text-transform:none;block-progression:tb;-inkscape-font-specification:Sans"
         d="M778.338 440.153s-6.126 3.148-13.618 5.675c-7.492 2.527-16.346 4.508-21.997 1.918l.393-.858c5.132 2.352 13.887.543 21.302-1.958 7.415-2.5 13.492-5.62 13.492-5.62l.428.843z"
         overflow="visible"
         enable-background="accumulate"
         id="path10984" />
      <path
         d="M776.548 446.11a.453.453 0 0 0-.623-.595l2.34-6.21a.453.453 0 1 0 .826.29l-2.324 6.243a.453.453 0 0 0-.218.27z"
         style="text-indent:0;text-align:start;line-height:normal;text-transform:none;block-progression:tb;-inkscape-font-specification:Sans"
         overflow="visible"
         enable-background="accumulate"
         id="path10986" />
      <path
         d="M778.697 439.68a.453.453 0 0 0-.254-.03l-6.41-1.722a.453.453 0 1 0 .228-.872l6.428 1.753a.453.453 0 0 0 .01.87z"
         style="text-indent:0;text-align:start;line-height:normal;text-transform:none;block-progression:tb;-inkscape-font-specification:Sans"
         overflow="visible"
         enable-background="accumulate"
         id="path10988" />
    </g>
  </g>
  <g
     fill="#fff"
     filter="url(#c)"
     transform="translate(-686.44 -424.78)"
     id="g11006">
    <g
       style="text-align:center;line-height:92.00000167%;-inkscape-font-specification:InkiCE"
       font-size="40"
       font-weight="400"
       letter-spacing="0"
       word-spacing="0"
       text-anchor="middle"
       font-family="InkiCE"
       id="g10996">
      <path
         d="M692.548 431.438c.042-.253.235-.38.58-.38.167 0 .262.075.283.222.675-.24 1.282-.34 1.823-.305.477.098.716.322.716.673 0 .485-.296 1.166-.886 2.043-.744 1.11-1.57 1.665-2.474 1.665-.344 0-.572-.09-.684-.274a7.756 7.756 0 0 0-.21 1.18c.04.19-.1.34-.422.453a.928.928 0 0 1-.295.063c-.113 0-.155-.06-.127-.18.273-1.087.498-1.922.673-2.505.302-.988.618-1.785.948-2.39.007-.055.032-.143.074-.262zm.526.642a14.987 14.987 0 0 0-.937 2.2c.127.225.277.34.453.348.386.02.765-.12 1.137-.42.112-.092.41-.387.895-.885.253-.337.453-.653.6-.948a.524.524 0 0 0 .064-.232c0-.182-.123-.33-.37-.442a3.177 3.177 0 0 0-.262-.01c-.435 0-.962.13-1.58.39zM697.318 431.227c.042-.252.235-.38.58-.38.21 0 .315.075.315.222 0 .09-.046.217-.137.378a3.87 3.87 0 0 1-.116.21c.68-.483 1.3-.704 1.853-.662a.54.54 0 0 1 .17-.032c.343 0 .515.29.515.874 0 .21-.032.456-.095.737.042.33-.088.53-.39.6a.45.45 0 0 1-.158.032c-.12 0-.18-.056-.18-.17 0-.048.015-.114.043-.2.1-.272.137-.525.116-.757-.014-.21-.126-.333-.337-.368-.38 0-.796.182-1.253.547-.175.14-.516.47-1.02.99-.106.37-.194.9-.264 1.59.042.188-.1.34-.42.452a.928.928 0 0 1-.296.063c-.12 0-.165-.06-.137-.18l.59-2.326c.112-.457.294-.91.547-1.36.028-.133.053-.22.074-.263zm1.937-.874c-.646-.56-1.13-.877-1.453-.947-.225-.014-.344-.078-.358-.19.014-.098.035-.2.063-.305.1-.203.204-.305.316-.305.042 0 .098.06.17.18.097.006.274.085.53.236.257.152.522.316.795.49.646-.54 1.173-.796 1.58-.768.12.028.18.085.18.17 0 .07-.03.146-.086.23-.105.162-.217.243-.336.243a.28.28 0 0 1-.127-.032c-.268.162-.692.495-1.275 1zM704.478 430.522h.295l.052.147.263.168.222.6-.19.747-.22.295-.928.464-.968.242h-.453l-.283-.327-.327.347-.19.284-.157.243-.064.327.19.284.262.168.38.116.736-.147.295-.03.4-.032.264-.21.695-.138-.074.17-.442.494-.632.358-.38.084-.357.084-.39.074h-.442l-.685-.21-.22-.285-.253-.464-.064-.222.032-.452.232-.42.147-.286.232-.21.158-.243.38-.43 1-.928.578-.347c.33-.19.632-.295.906-.316zm-.285.642l-.284.126-.906.643-.158.474.052.063 1.19-.306.39-.442.137-.253-.17-.21zM706.784 431.438c.042-.253.235-.38.58-.38.167 0 .262.075.283.222.674-.24 1.28-.34 1.822-.305.476.098.715.322.715.673 0 .485-.295 1.166-.885 2.043-.744 1.11-1.57 1.665-2.474 1.665-.344 0-.572-.09-.685-.274a7.756 7.756 0 0 0-.21 1.18c.043.19-.097.34-.42.453a.928.928 0 0 1-.295.063c-.113 0-.155-.06-.127-.18.274-1.087.5-1.922.674-2.505.302-.988.618-1.785.948-2.39.007-.055.032-.143.074-.262zm.526.642a14.987 14.987 0 0 0-.937 2.2c.126.225.277.34.453.348.386.02.765-.12 1.137-.42.112-.092.41-.387.895-.885.253-.337.453-.653.6-.948a.524.524 0 0 0 .063-.232c0-.182-.12-.33-.367-.442a3.177 3.177 0 0 0-.263-.01c-.436 0-.962.13-1.58.39zM711.575 431.248c.05-.245.245-.368.59-.368.21 0 .315.07.315.21 0 .092-.045.218-.137.38-.4.7-.663 1.242-.79 1.62-.14.422-.25 1.012-.326 1.77.042.19-.098.34-.42.453a.928.928 0 0 1-.296.063c-.118 0-.164-.06-.136-.18l.58-2.316c.105-.42.29-.877.557-1.368.015-.1.037-.186.065-.264zm2.074-2.643c.083.085.104.208.062.37-.105.357-.498.694-1.18 1.01-.448.21-.715.277-.8.2-.028-.028-.03-.07-.01-.126.042-.12.165-.282.37-.486l.715-.726c.112-.12.245-.21.4-.274.196-.084.344-.074.442.03zM713.617 431.227c.05-.252.246-.38.59-.38.21 0 .316.075.316.222 0 .098-.063.256-.19.473-.05.084-.137.242-.263.474l-.242.474c.54-.406 1.207-.81 2-1.21.155-.05.288-.074.4-.074.21 0 .317.09.317.274 0 .028-.044.23-.132.605l-.332 1.417a19.377 19.377 0 0 1-.44 1.505c0 .17-.17.27-.506.306-.225.028-.337-.025-.337-.158 0-.063.028-.148.084-.253.394-1.018.636-1.885.727-2.6-.035-.043-.087-.064-.158-.064-.14 0-.355.084-.643.253a8.6 8.6 0 0 0-1.337.98c-.084.365-.15.82-.2 1.37.042.188-.098.34-.42.452a.928.928 0 0 1-.296.063c-.12 0-.165-.06-.137-.18l.58-2.326c.097-.408.283-.86.557-1.36.014-.098.035-.185.063-.263zM721.82 431.206c-.316.765-.635 1.727-.958 2.885-.534.837-1.327 1.247-2.38 1.233-.835-.09-1.337-.266-1.506-.526-.105-.162-.158-.31-.158-.442 0-.092.02-.18.063-.264.746-.855 1.41-1.368 1.992-1.536.526-.225 1.158-.337 1.895-.337.07-.302.168-.6.295-.895a.366.366 0 0 0-.18-.38c-.21-.097-.515-.097-.915 0-.422.036-.853.243-1.296.622a.378.378 0 0 1-.24.095c-.078 0-.148-.043-.21-.127a.398.398 0 0 1-.096-.232c0-.07.04-.146.116-.23.407-.394.95-.664 1.632-.81.484-.114.91-.12 1.274-.022.4.112.625.435.674.968zm-1.443 1.77a1.835 1.835 0 0 0-.463-.064c-.232 0-.54.08-.927.242-.316.134-.55.262-.7.385-.15.12-.314.327-.49.614-.02.21.032.355.158.432.106.063.267.088.485.074.42.063.758.044 1.01-.058.253-.102.503-.325.748-.67l.127-.483c.042-.162.06-.32.052-.475zM726.19 431.9c.014.184-.102.338-.348.464a.65.65 0 0 1-.263.085c-.078 0-.117-.043-.117-.128a1.63 1.63 0 0 0 .116-.547c0-.316-.092-.5-.275-.548-.667.33-1.204.727-1.61 1.19-.366.42-.706.997-1.022 1.727-.02.28.066.42.263.42.09 0 .207-.027.347-.083.106-.04.748-.36 1.927-.957a.262.262 0 0 1 .116-.032c.098 0 .172.085.22.254.064.23.022.39-.125.474-.996.56-1.807.92-2.43 1.074a1.49 1.49 0 0 1-.35.052c-.42 0-.63-.347-.63-1.042.49-1.818 1.572-3.096 3.242-3.833.204-.092.372-.138.506-.138.126 0 .235.048.326.142.09.095.14.21.148.343.042.14.063.287.063.442 0 .195-.035.41-.105.64zm-.8-2.03c-.647-.563-1.13-.878-1.454-.95-.224-.013-.344-.076-.358-.188.014-.098.035-.2.063-.306.1-.203.205-.305.317-.305.042 0 .1.06.17.18.097.007.274.086.53.237.257.15.522.314.795.49.646-.54 1.173-.797 1.58-.77.12.03.18.085.18.17 0 .07-.03.147-.085.23-.106.163-.218.243-.337.243a.28.28 0 0 1-.127-.03c-.266.16-.69.494-1.274 1zM691 441.147c.042-.253.235-.38.58-.38.21 0 .315.075.315.222 0 .076-.102.304-.305.683l-.148.274c.393-.31.78-.558 1.158-.747.155-.05.288-.074.4-.074.21 0 .316.09.316.274 0 .14-.045.344-.136.61v.042a8.29 8.29 0 0 1 1.284-.852c.155-.05.288-.074.4-.074.218 0 .327.09.327.274 0 .014-.045.217-.136.61-.33 1.397-.59 2.37-.78 2.917 0 .168-.168.27-.505.305-.225.028-.338-.02-.338-.147 0-.07.032-.158.095-.263.386-1.04.628-1.906.727-2.6a.17.17 0 0 0-.137-.064c-.176 0-.544.235-1.106.705-.16.68-.36 1.37-.6 2.064 0 .168-.168.27-.504.305-.225.028-.337-.02-.337-.147 0-.07.03-.158.093-.263.386-1.053.625-1.92.716-2.6a.17.17 0 0 0-.138-.064c-.19 0-.617.288-1.284.863-.126.366-.232.945-.316 1.74.042.188-.098.34-.42.45a.928.928 0 0 1-.296.064c-.12 0-.165-.06-.137-.18l.59-2.326c.104-.428.287-.88.546-1.358.007-.056.032-.144.074-.263zM700.466 441.126c-.316.765-.635 1.727-.958 2.885-.534.836-1.327 1.247-2.38 1.233-.835-.09-1.337-.267-1.506-.527-.105-.16-.157-.308-.157-.442 0-.09.02-.18.063-.263.744-.855 1.407-1.368 1.99-1.536.526-.225 1.158-.337 1.895-.337.07-.302.17-.6.295-.895a.366.366 0 0 0-.18-.38c-.21-.098-.515-.098-.915 0-.42.036-.853.243-1.295.622a.378.378 0 0 1-.242.095c-.078 0-.148-.044-.21-.128a.398.398 0 0 1-.096-.23c0-.072.04-.15.116-.233.407-.394.95-.664 1.632-.812.484-.112.91-.12 1.274-.02.4.11.625.434.674.968zm-1.443 1.77a1.835 1.835 0 0 0-.463-.064c-.23 0-.54.08-.926.242-.316.133-.55.26-.7.384-.152.123-.315.328-.49.616-.02.21.03.355.158.432.105.063.266.088.484.074.42.063.758.043 1.01-.058.254-.102.503-.325.748-.67l.127-.483c.043-.163.06-.32.053-.475zM702.088 441.357c.042-.252.235-.38.58-.38.167 0 .262.075.283.223.675-.24 1.282-.34 1.823-.306.477.098.716.323.716.674 0 .484-.296 1.165-.886 2.043-.744 1.11-1.57 1.664-2.474 1.664-.344 0-.572-.09-.685-.273a7.756 7.756 0 0 0-.21 1.18c.042.19-.1.34-.422.453a.928.928 0 0 1-.294.063c-.114 0-.156-.06-.128-.18.274-1.087.5-1.922.674-2.505.302-.99.618-1.786.948-2.39.007-.055.03-.143.074-.263zm.526.643a14.987 14.987 0 0 0-.937 2.2c.126.225.277.34.453.348.386.02.765-.12 1.137-.42.112-.093.41-.387.895-.886.253-.337.453-.653.6-.947a.524.524 0 0 0 .063-.232c0-.183-.123-.33-.368-.442a3.177 3.177 0 0 0-.264-.01c-.435 0-.96.13-1.58.39zM708.363 441.178c.14-.014.274-.02.4-.02.68 0 1.127.196 1.337.59.134.252.2.55.2.894 0 .295-.05.625-.147.99-.267.526-.702.937-1.306 1.232a4.008 4.008 0 0 1-2.17.38c-.658-.057-.988-.363-.988-.917 0-.063.002-.134.01-.21.477-1.454 1.364-2.433 2.663-2.938zm-.137.748c-.856.33-1.44.965-1.748 1.906a1.36 1.36 0 0 0-.01.168c0 .344.217.534.653.57.085.006.17.01.253.01.43 0 .815-.085 1.16-.253.392-.19.676-.46.85-.81a2.57 2.57 0 0 0 .096-.654c0-.64-.324-.958-.97-.958-.09 0-.186.007-.284.02zM710.806 440.957c.007-.287.168-.417.484-.39.295.022.453.187.474.496.028.512.035.916.02 1.21-.02.345-.073.762-.157 1.254.372-.38.73-.857 1.074-1.432.015-.02.307-.544.875-1.57.084-.154.2-.23.348-.23.084 0 .168.027.252.083.148.1.222.207.222.327 0 .07-.022.137-.064.2-.61.954-1.54 2.26-2.79 3.917-.007.35-.16.505-.463.463-.253-.035-.38-.105-.38-.21a.17.17 0 0 1 .022-.074c.14-1.214.21-2.123.21-2.726 0-.478-.042-.917-.126-1.317zM717.345 443.958a8.68 8.68 0 0 1-1.17.695l-1.073.527c-.16.056-.298.084-.41.084-.204 0-.306-.088-.306-.263 0-.027.044-.234.132-.62l.33-1.464c.135-.52.282-1.007.444-1.464-.007-.154.157-.252.494-.295.225-.028.337.02.337.148a.584.584 0 0 1-.084.253c-.394 1.038-.636 1.91-.727 2.61.035.05.094.075.18.075.14 0 .364-.074.672-.222.485-.23.948-.53 1.39-.894.07-.336.113-.638.127-.905.014-.266-.02-.452-.106-.557-.007-.33.144-.58.453-.748a.504.504 0 0 1 .22-.073c.148 0 .214.133.2.4.035.112.053.256.053.43 0 .156-.014.335-.042.538-.16 1.166-.512 2.39-1.052 3.675-.337.793-.97 1.19-1.895 1.19-.534 0-1.138-.14-1.81-.42-.233-.156-.35-.292-.35-.412 0-.077.047-.145.138-.205.092-.06.18-.09.264-.09.127 0 .242.064.348.19.526.21.968.312 1.326.305.35-.007.737-.18 1.16-.516.216-.31.47-.965.757-1.97zm1.22-5.18c.085.084.106.207.064.368-.106.358-.5.695-1.18 1.01-.45.212-.716.278-.8.2-.028-.027-.032-.07-.01-.125.04-.118.164-.28.368-.484l.716-.726c.112-.12.246-.21.4-.274.196-.084.344-.074.442.032zM722.862 441.82c.014.183-.102.338-.347.464a.65.65 0 0 1-.263.084c-.078 0-.116-.042-.116-.126a1.63 1.63 0 0 0 .116-.548c0-.315-.092-.498-.274-.547-.667.33-1.204.726-1.61 1.19-.366.42-.707.997-1.023 1.727-.02.28.067.42.264.42.09 0 .206-.027.346-.083.105-.042.748-.36 1.927-.958a.262.262 0 0 1 .116-.03c.097 0 .17.083.22.25.063.233.02.39-.126.475-.997.562-1.808.92-2.433 1.074a1.49 1.49 0 0 1-.346.054c-.42 0-.632-.348-.632-1.042.49-1.82 1.572-3.096 3.243-3.833.204-.092.372-.138.506-.138.127 0 .236.047.327.142.09.095.14.21.147.342.042.14.063.288.064.442 0 .197-.036.41-.106.643zM724.958 439.936c.042-.253.235-.38.58-.38.21 0 .315.075.315.222 0 .063-.144.372-.432.927-.062.126-.15.305-.262.537.54-.197 1.028-.295 1.463-.295.107 0 .208.003.307.01a.667.667 0 0 1 .19-.03c.343 0 .505.367.483 1.104-.02.872-.48 1.946-1.38 3.223-.083.155-.17.232-.262.232-.183 0-.274-.123-.274-.368 0-.113.028-.246.084-.4.407-.464.744-1.05 1.01-1.76.12-.315.18-.603.18-.862 0-.246-.112-.387-.337-.422-.518-.035-1.122.088-1.81.37-.386.968-.62 1.873-.705 2.716.042.188-.1.34-.42.45a.928.928 0 0 1-.296.064c-.12 0-.166-.06-.138-.18.245-.974.474-1.806.684-2.494.302-1.004.618-1.804.948-2.4.014-.043.038-.13.074-.264zM695.633 450.877c.007-.288.168-.418.484-.39.295.02.453.186.474.495.03.513.036.916.022 1.21-.02.345-.073.763-.158 1.254.372-.38.73-.856 1.074-1.432.014-.02.306-.544.874-1.57.084-.153.2-.23.348-.23.084 0 .168.028.252.084.148.098.222.207.222.326 0 .07-.022.137-.064.2-.61.955-1.54 2.26-2.79 3.917-.007.352-.16.507-.463.465-.253-.036-.38-.106-.38-.21a.17.17 0 0 1 .022-.075c.14-1.214.21-2.123.21-2.727 0-.477-.043-.916-.127-1.316zM700.403 451.067c.042-.253.235-.38.58-.38.21 0 .315.074.315.222 0 .09-.046.216-.137.378a3.868 3.868 0 0 1-.115.21c.68-.484 1.3-.705 1.853-.663a.54.54 0 0 1 .17-.032c.343 0 .515.292.515.874 0 .21-.032.457-.095.737.042.33-.088.53-.39.6a.45.45 0 0 1-.158.032c-.12 0-.18-.056-.18-.168 0-.05.015-.116.044-.2.098-.274.136-.527.115-.76-.015-.21-.127-.332-.338-.367-.38 0-.796.183-1.253.548-.176.14-.517.47-1.022.99-.105.372-.193.902-.263 1.59.042.19-.098.34-.42.453a.928.928 0 0 1-.296.064c-.12 0-.166-.06-.138-.18l.59-2.326c.112-.456.294-.91.547-1.358.027-.134.052-.22.073-.263zM708.363 450.382c.246.063.37.162.37.295 0 .035-.015.08-.043.137-.106.203-.26.298-.464.284a1.56 1.56 0 0 0-.516-.084c-.245 0-.502.045-.768.137-.492.17-.843.4-1.053.696-.198.19-.282.34-.254.452.028.1.13.12.305.064.233-.078.717-.22 1.454-.432l.074-.02c.274-.078.54-.113.8-.106.422-.043.72.07.895.337a.928.928 0 0 1 .095.853c-.435.843-1.112 1.51-2.032 2-.407.127-.804.19-1.19.19-.196 0-.404-.02-.62-.063-.612-.12-1.086-.312-1.423-.58-.147-.118-.22-.23-.22-.336 0-.056.017-.105.052-.147.105-.133.263-.18.474-.137.504.38 1.027.57 1.568.57.308 0 .656-.065 1.042-.19.82-.464 1.32-.92 1.495-1.37a.518.518 0 0 0 .042-.19c0-.182-.13-.273-.39-.273-.19 0-.65.098-1.38.295-.672.182-1.118.274-1.336.274-.4 0-.6-.17-.6-.506 0-.12.043-.26.127-.42.61-1.187 1.562-1.78 2.854-1.78.21 0 .426.017.643.052zM711.964 448.887c.035-.133.095-.2.18-.2.112 0 .227.063.347.19.12.126.18.245.18.357 0 .12-.06.243-.18.37-.16.287-.308.582-.442.883a2.57 2.57 0 0 1 .232-.01c.35 0 .677.08.98.242.168.02.252.16.252.42-.007.267-.123.393-.347.38a1.596 1.596 0 0 0-.97-.327 2.04 2.04 0 0 0-.452.053c-.05.112-.344 1.003-.884 2.674a.677.677 0 0 0-.044.2c0 .197.162.277.485.242.127.007.29-.035.485-.126.274-.126.428-.197.463-.21.176 0 .26.105.253.315-.006.226-.07.384-.188.475-.787.24-1.302.35-1.548.337a.72.72 0 0 1-.58-.326.937.937 0 0 1-.168-.653c.176-.562.442-1.408.8-2.538-.126.077-.308.2-.547.37a.187.187 0 0 1-.085.02c-.134 0-.2-.123-.2-.37 0-.125.042-.24.126-.346a5.618 5.618 0 0 1 1.022-.57 11.38 11.38 0 0 1 .832-1.853zM717.587 450.36h.295l.052.148.264.17.22.6-.19.747-.22.295-.926.463-.97.242h-.452l-.284-.326-.327.346-.19.284-.158.243-.063.326.188.283.263.17.38.115.738-.148.294-.03.4-.033.264-.21.695-.138-.073.168-.442.495-.632.358-.38.085-.357.084-.39.073h-.442l-.684-.21-.22-.285-.254-.463-.063-.22.03-.454.233-.42.147-.285.232-.21.158-.242.38-.432 1-.926.578-.347c.33-.19.633-.295.907-.316zm-.284.643l-.285.127-.905.642-.158.474.053.063 1.19-.306.39-.443.136-.25-.17-.212zM718.566 450.877c.007-.288.17-.418.485-.39.295.02.453.186.474.495.028.513.035.916.02 1.21-.02.345-.072.763-.157 1.254.373-.38.73-.856 1.074-1.432.016-.02.307-.544.875-1.57.085-.153.2-.23.348-.23.084 0 .168.028.253.084.147.098.22.207.22.326 0 .07-.02.137-.062.2-.61.955-1.54 2.26-2.79 3.917-.008.352-.162.507-.464.465-.253-.036-.38-.106-.38-.21a.17.17 0 0 1 .022-.075c.14-1.214.21-2.123.21-2.727 0-.477-.042-.916-.126-1.316z"
         id="path10994" />
    </g>
    <g
       font-weight="400"
       color="#000"
       font-family="Sans"
       id="g11004">
      <path
         style="text-indent:0;text-align:start;line-height:normal;text-transform:none;block-progression:tb;-inkscape-font-specification:Sans"
         d="M778.338 440.153s-6.126 3.148-13.618 5.675c-7.492 2.527-16.346 4.508-21.997 1.918l.393-.858c5.132 2.352 13.887.543 21.302-1.958 7.415-2.5 13.492-5.62 13.492-5.62l.428.843z"
         overflow="visible"
         enable-background="accumulate"
         id="path10998" />
      <path
         d="M776.548 446.11a.453.453 0 0 0-.623-.595l2.34-6.21a.453.453 0 1 0 .826.29l-2.324 6.243a.453.453 0 0 0-.218.27z"
         style="text-indent:0;text-align:start;line-height:normal;text-transform:none;block-progression:tb;-inkscape-font-specification:Sans"
         overflow="visible"
         enable-background="accumulate"
         id="path11000" />
      <path
         d="M778.697 439.68a.453.453 0 0 0-.254-.03l-6.41-1.722a.453.453 0 1 0 .228-.872l6.428 1.753a.453.453 0 0 0 .01.87z"
         style="text-indent:0;text-align:start;line-height:normal;text-transform:none;block-progression:tb;-inkscape-font-specification:Sans"
         overflow="visible"
         enable-background="accumulate"
         id="path11002" />
    </g>
  </g>
  <g
     font-weight="400"
     color="#000"
     font-family="Sans"
     id="g11018">
    <path
       d="M91.9 15.375s-6.127 3.147-13.62 5.674c-7.49 2.527-16.344 4.507-21.995 1.917l.393-.857c5.13 2.35 13.887.542 21.302-1.96 7.415-2.5 13.492-5.62 13.492-5.62l.428.845z"
       style="text-indent:0;text-align:start;line-height:normal;text-transform:none;block-progression:tb;-inkscape-font-specification:Sans"
       overflow="visible"
       enable-background="accumulate"
       id="path11012" />
    <path
       style="text-indent:0;text-align:start;line-height:normal;text-transform:none;block-progression:tb;-inkscape-font-specification:Sans"
       d="M90.11 21.33a.453.453 0 0 0-.624-.594l2.34-6.21a.453.453 0 1 0 .827.29l-2.325 6.244a.453.453 0 0 0-.22.27z"
       overflow="visible"
       enable-background="accumulate"
       id="path11014" />
    <path
       style="text-indent:0;text-align:start;line-height:normal;text-transform:none;block-progression:tb;-inkscape-font-specification:Sans"
       d="M92.258 14.9a.453.453 0 0 0-.254-.03l-6.41-1.72a.453.453 0 1 0 .23-.873l6.425 1.753a.453.453 0 0 0 .008.87z"
       overflow="visible"
       enable-background="accumulate"
       id="path11016" />
  </g>
  <text
     xml:space="preserve"
     style="font-style:italic;font-variant:normal;font-weight:600;font-stretch:normal;font-size:7.90991449px;line-height:1.25;font-family:FreeSans;-inkscape-font-specification:'FreeSans, Semi-Bold Italic';font-variant-ligatures:normal;font-variant-caps:normal;font-variant-numeric:normal;font-feature-settings:normal;text-align:center;letter-spacing:0px;word-spacing:0px;writing-mode:lr-tb;text-anchor:middle;fill:#000000;fill-opacity:1;stroke:none;stroke-width:0.10401686"
     x="30.080704"
     y="15.108492"
     id="text11571"
     transform="scale(0.97858254,1.0218862)"><tspan
       sodipodi:role="line"
       id="tspan11569"
       x="30.080704"
       y="15.108492"
       style="font-style:italic;font-variant:normal;font-weight:600;font-stretch:normal;font-size:7.90991449px;font-family:FreeSans;-inkscape-font-specification:'FreeSans, Semi-Bold Italic';font-variant-ligatures:normal;font-variant-caps:normal;font-variant-numeric:normal;font-feature-settings:normal;text-align:center;writing-mode:lr-tb;text-anchor:middle;stroke-width:0.10401686">izbor sloja</tspan><tspan
       sodipodi:role="line"
       x="30.080704"
       y="24.995886"
       id="tspan11573"
       style="font-style:italic;font-variant:normal;font-weight:600;font-stretch:normal;font-size:7.90991449px;font-family:FreeSans;-inkscape-font-specification:'FreeSans, Semi-Bold Italic';font-variant-ligatures:normal;font-variant-caps:normal;font-variant-numeric:normal;font-feature-settings:normal;text-align:center;writing-mode:lr-tb;text-anchor:middle;stroke-width:0.10401686">karte</tspan></text>
</svg>
